<mxfile host="app.diagrams.net" modified="2023-12-15T11:04:18.479Z" agent="Mozilla/5.0 (Windows NT 10.0; Win64; x64) AppleWebKit/537.36 (KHTML, like Gecko) Chrome/120.0.0.0 Safari/537.36" etag="00p8IpmQuk0o6C5cGcWr" version="22.1.9" type="device">
  <diagram name="Страница — 1" id="iLmiLOGlKaKXKKRn-Lhk">
    <mxGraphModel dx="1518" dy="675" grid="1" gridSize="10" guides="1" tooltips="1" connect="1" arrows="1" fold="1" page="1" pageScale="1" pageWidth="827" pageHeight="1169" math="0" shadow="0">
      <root>
        <mxCell id="0" />
        <mxCell id="1" parent="0" />
        <mxCell id="xgTPZDGoGvMDf0IchTHO-11" style="edgeStyle=orthogonalEdgeStyle;rounded=0;orthogonalLoop=1;jettySize=auto;html=1;" edge="1" parent="1" source="xgTPZDGoGvMDf0IchTHO-1" target="xgTPZDGoGvMDf0IchTHO-5">
          <mxGeometry relative="1" as="geometry" />
        </mxCell>
        <mxCell id="xgTPZDGoGvMDf0IchTHO-20" style="edgeStyle=orthogonalEdgeStyle;rounded=0;orthogonalLoop=1;jettySize=auto;html=1;" edge="1" parent="1" source="xgTPZDGoGvMDf0IchTHO-1" target="xgTPZDGoGvMDf0IchTHO-19">
          <mxGeometry relative="1" as="geometry" />
        </mxCell>
        <mxCell id="xgTPZDGoGvMDf0IchTHO-1" value="Гость&lt;br&gt;" style="shape=umlActor;verticalLabelPosition=bottom;verticalAlign=top;html=1;" vertex="1" parent="1">
          <mxGeometry x="470" y="580" width="30" height="60" as="geometry" />
        </mxCell>
        <mxCell id="xgTPZDGoGvMDf0IchTHO-13" style="edgeStyle=orthogonalEdgeStyle;rounded=0;orthogonalLoop=1;jettySize=auto;html=1;" edge="1" parent="1" source="xgTPZDGoGvMDf0IchTHO-2" target="xgTPZDGoGvMDf0IchTHO-12">
          <mxGeometry relative="1" as="geometry" />
        </mxCell>
        <mxCell id="xgTPZDGoGvMDf0IchTHO-24" style="edgeStyle=orthogonalEdgeStyle;rounded=0;orthogonalLoop=1;jettySize=auto;html=1;" edge="1" parent="1" source="xgTPZDGoGvMDf0IchTHO-2" target="xgTPZDGoGvMDf0IchTHO-23">
          <mxGeometry relative="1" as="geometry" />
        </mxCell>
        <mxCell id="xgTPZDGoGvMDf0IchTHO-34" style="edgeStyle=orthogonalEdgeStyle;rounded=0;orthogonalLoop=1;jettySize=auto;html=1;" edge="1" parent="1" source="xgTPZDGoGvMDf0IchTHO-2">
          <mxGeometry relative="1" as="geometry">
            <mxPoint x="485" y="650" as="targetPoint" />
          </mxGeometry>
        </mxCell>
        <mxCell id="xgTPZDGoGvMDf0IchTHO-2" value="Пользователь" style="shape=umlActor;verticalLabelPosition=bottom;verticalAlign=top;html=1;" vertex="1" parent="1">
          <mxGeometry x="470" y="720" width="30" height="60" as="geometry" />
        </mxCell>
        <mxCell id="xgTPZDGoGvMDf0IchTHO-26" style="edgeStyle=orthogonalEdgeStyle;rounded=0;orthogonalLoop=1;jettySize=auto;html=1;" edge="1" parent="1" source="xgTPZDGoGvMDf0IchTHO-3" target="xgTPZDGoGvMDf0IchTHO-25">
          <mxGeometry relative="1" as="geometry" />
        </mxCell>
        <mxCell id="xgTPZDGoGvMDf0IchTHO-33" style="edgeStyle=orthogonalEdgeStyle;rounded=0;orthogonalLoop=1;jettySize=auto;html=1;" edge="1" parent="1" source="xgTPZDGoGvMDf0IchTHO-3" target="xgTPZDGoGvMDf0IchTHO-2">
          <mxGeometry relative="1" as="geometry" />
        </mxCell>
        <mxCell id="xgTPZDGoGvMDf0IchTHO-3" value="Продавец" style="shape=umlActor;verticalLabelPosition=bottom;verticalAlign=top;html=1;" vertex="1" parent="1">
          <mxGeometry x="470" y="870" width="30" height="60" as="geometry" />
        </mxCell>
        <mxCell id="xgTPZDGoGvMDf0IchTHO-5" value="Авторизация" style="ellipse;whiteSpace=wrap;html=1;" vertex="1" parent="1">
          <mxGeometry x="290" y="575" width="140" height="70" as="geometry" />
        </mxCell>
        <mxCell id="xgTPZDGoGvMDf0IchTHO-6" value="Подтверждение телефона" style="ellipse;whiteSpace=wrap;html=1;" vertex="1" parent="1">
          <mxGeometry x="60" y="575" width="140" height="70" as="geometry" />
        </mxCell>
        <mxCell id="xgTPZDGoGvMDf0IchTHO-7" value="&amp;lt;&amp;lt;include&amp;gt;&amp;gt;" style="endArrow=open;endSize=12;dashed=1;html=1;rounded=0;edgeStyle=orthogonalEdgeStyle;entryX=1;entryY=0.5;entryDx=0;entryDy=0;exitX=0;exitY=0.5;exitDx=0;exitDy=0;" edge="1" parent="1" source="xgTPZDGoGvMDf0IchTHO-5" target="xgTPZDGoGvMDf0IchTHO-6">
          <mxGeometry width="160" relative="1" as="geometry">
            <mxPoint x="220" y="520" as="sourcePoint" />
            <mxPoint x="380" y="520" as="targetPoint" />
          </mxGeometry>
        </mxCell>
        <mxCell id="xgTPZDGoGvMDf0IchTHO-12" value="Редактировать профиль" style="ellipse;whiteSpace=wrap;html=1;" vertex="1" parent="1">
          <mxGeometry x="290" y="715" width="140" height="70" as="geometry" />
        </mxCell>
        <mxCell id="xgTPZDGoGvMDf0IchTHO-14" value="Изменить пароль" style="ellipse;whiteSpace=wrap;html=1;" vertex="1" parent="1">
          <mxGeometry x="60" y="715" width="140" height="70" as="geometry" />
        </mxCell>
        <mxCell id="xgTPZDGoGvMDf0IchTHO-15" value="&amp;lt;&amp;lt;include&amp;gt;&amp;gt;" style="endArrow=open;endSize=12;dashed=1;html=1;rounded=0;edgeStyle=orthogonalEdgeStyle;entryX=1;entryY=0.5;entryDx=0;entryDy=0;exitX=0;exitY=0.5;exitDx=0;exitDy=0;" edge="1" parent="1" source="xgTPZDGoGvMDf0IchTHO-12" target="xgTPZDGoGvMDf0IchTHO-14">
          <mxGeometry width="160" relative="1" as="geometry">
            <mxPoint x="280" y="750" as="sourcePoint" />
            <mxPoint x="220" y="749" as="targetPoint" />
          </mxGeometry>
        </mxCell>
        <mxCell id="xgTPZDGoGvMDf0IchTHO-16" value="&amp;lt;&amp;lt;include&amp;gt;&amp;gt;" style="endArrow=open;endSize=12;dashed=1;html=1;rounded=0;edgeStyle=orthogonalEdgeStyle;entryX=0.5;entryY=1;entryDx=0;entryDy=0;exitX=0.5;exitY=0;exitDx=0;exitDy=0;" edge="1" parent="1" source="xgTPZDGoGvMDf0IchTHO-14" target="xgTPZDGoGvMDf0IchTHO-6">
          <mxGeometry width="160" relative="1" as="geometry">
            <mxPoint x="310" y="630" as="sourcePoint" />
            <mxPoint x="220" y="630" as="targetPoint" />
          </mxGeometry>
        </mxCell>
        <mxCell id="xgTPZDGoGvMDf0IchTHO-17" value="Выйти из аккаунта" style="ellipse;whiteSpace=wrap;html=1;" vertex="1" parent="1">
          <mxGeometry x="290" y="810" width="140" height="70" as="geometry" />
        </mxCell>
        <mxCell id="xgTPZDGoGvMDf0IchTHO-18" value="&amp;lt;&amp;lt;include&amp;gt;&amp;gt;" style="endArrow=open;endSize=12;dashed=1;html=1;rounded=0;edgeStyle=orthogonalEdgeStyle;entryX=0.5;entryY=0;entryDx=0;entryDy=0;exitX=0.5;exitY=1;exitDx=0;exitDy=0;" edge="1" parent="1" source="xgTPZDGoGvMDf0IchTHO-12" target="xgTPZDGoGvMDf0IchTHO-17">
          <mxGeometry width="160" relative="1" as="geometry">
            <mxPoint x="300" y="760" as="sourcePoint" />
            <mxPoint x="210" y="760" as="targetPoint" />
          </mxGeometry>
        </mxCell>
        <mxCell id="xgTPZDGoGvMDf0IchTHO-19" value="Просмотреть список техники" style="ellipse;whiteSpace=wrap;html=1;" vertex="1" parent="1">
          <mxGeometry x="530" y="575" width="140" height="70" as="geometry" />
        </mxCell>
        <mxCell id="xgTPZDGoGvMDf0IchTHO-21" value="&amp;lt;&amp;lt;include&amp;gt;&amp;gt;" style="endArrow=open;endSize=12;dashed=1;html=1;rounded=0;edgeStyle=orthogonalEdgeStyle;exitX=0.5;exitY=0;exitDx=0;exitDy=0;entryX=0.5;entryY=1;entryDx=0;entryDy=0;" edge="1" parent="1" source="xgTPZDGoGvMDf0IchTHO-19" target="xgTPZDGoGvMDf0IchTHO-22">
          <mxGeometry width="160" relative="1" as="geometry">
            <mxPoint x="580" y="530" as="sourcePoint" />
            <mxPoint x="600" y="520" as="targetPoint" />
          </mxGeometry>
        </mxCell>
        <mxCell id="xgTPZDGoGvMDf0IchTHO-22" value="Найти определенную технику" style="ellipse;whiteSpace=wrap;html=1;" vertex="1" parent="1">
          <mxGeometry x="530" y="440" width="140" height="70" as="geometry" />
        </mxCell>
        <mxCell id="xgTPZDGoGvMDf0IchTHO-23" value="Купить часы в зале" style="ellipse;whiteSpace=wrap;html=1;" vertex="1" parent="1">
          <mxGeometry x="530" y="715" width="140" height="70" as="geometry" />
        </mxCell>
        <mxCell id="xgTPZDGoGvMDf0IchTHO-25" value="Работа с техникой" style="ellipse;whiteSpace=wrap;html=1;" vertex="1" parent="1">
          <mxGeometry x="530" y="865" width="140" height="70" as="geometry" />
        </mxCell>
        <mxCell id="xgTPZDGoGvMDf0IchTHO-27" value="Удалить технику" style="ellipse;whiteSpace=wrap;html=1;" vertex="1" parent="1">
          <mxGeometry x="660" y="795" width="140" height="70" as="geometry" />
        </mxCell>
        <mxCell id="xgTPZDGoGvMDf0IchTHO-28" value="Добавить технику" style="ellipse;whiteSpace=wrap;html=1;" vertex="1" parent="1">
          <mxGeometry x="660" y="930" width="140" height="70" as="geometry" />
        </mxCell>
        <mxCell id="xgTPZDGoGvMDf0IchTHO-29" value="Обновить данные о технике" style="ellipse;whiteSpace=wrap;html=1;" vertex="1" parent="1">
          <mxGeometry x="790" y="865" width="140" height="70" as="geometry" />
        </mxCell>
        <mxCell id="xgTPZDGoGvMDf0IchTHO-30" value="&amp;lt;&amp;lt;include&amp;gt;&amp;gt;" style="endArrow=open;endSize=12;dashed=1;html=1;rounded=0;edgeStyle=orthogonalEdgeStyle;entryX=0;entryY=0.5;entryDx=0;entryDy=0;exitX=1;exitY=0.5;exitDx=0;exitDy=0;" edge="1" parent="1" source="xgTPZDGoGvMDf0IchTHO-25" target="xgTPZDGoGvMDf0IchTHO-29">
          <mxGeometry width="160" relative="1" as="geometry">
            <mxPoint x="300" y="760" as="sourcePoint" />
            <mxPoint x="210" y="760" as="targetPoint" />
          </mxGeometry>
        </mxCell>
        <mxCell id="xgTPZDGoGvMDf0IchTHO-31" value="&amp;lt;&amp;lt;include&amp;gt;&amp;gt;" style="endArrow=open;endSize=12;dashed=1;html=1;rounded=0;edgeStyle=orthogonalEdgeStyle;entryX=0;entryY=0.5;entryDx=0;entryDy=0;exitX=0.5;exitY=1;exitDx=0;exitDy=0;" edge="1" parent="1" source="xgTPZDGoGvMDf0IchTHO-25" target="xgTPZDGoGvMDf0IchTHO-28">
          <mxGeometry width="160" relative="1" as="geometry">
            <mxPoint x="680" y="910" as="sourcePoint" />
            <mxPoint x="800" y="910" as="targetPoint" />
          </mxGeometry>
        </mxCell>
        <mxCell id="xgTPZDGoGvMDf0IchTHO-32" value="&amp;lt;&amp;lt;include&amp;gt;&amp;gt;" style="endArrow=open;endSize=12;dashed=1;html=1;rounded=0;edgeStyle=orthogonalEdgeStyle;entryX=0;entryY=0.5;entryDx=0;entryDy=0;exitX=0.5;exitY=0;exitDx=0;exitDy=0;" edge="1" parent="1" source="xgTPZDGoGvMDf0IchTHO-25" target="xgTPZDGoGvMDf0IchTHO-27">
          <mxGeometry width="160" relative="1" as="geometry">
            <mxPoint x="690" y="920" as="sourcePoint" />
            <mxPoint x="810" y="920" as="targetPoint" />
          </mxGeometry>
        </mxCell>
      </root>
    </mxGraphModel>
  </diagram>
</mxfile>
